<svg viewBox="0 0 2500 2000" xml:space="preserve" xmlns="http://www.w3.org/2000/svg"><defs><clipPath id="a"><path d="M0 1500h1875V0H0z"/></clipPath><clipPath id="b"><path d="M325.27 580.65h5.399v-8.953h-5.399z"/></clipPath><clipPath id="c"><path d="M294.45 561.53h5.399v-8.952h-5.399z"/></clipPath><clipPath id="d"><path d="M257.04 537.96h5.399v-8.953h-5.399z"/></clipPath><clipPath id="e"><path d="M346.08 544.73h19.667v-22.937H346.08z"/></clipPath><clipPath id="f"><path d="M119.66 301.47h1612.8v-94.33H119.66z"/></clipPath><clipPath id="g"><path d="M772.58 494.7h9.317v-7.958h-9.317z"/></clipPath><clipPath id="h"><path d="M327.1 499.58h19.252v-16.442H327.1z"/></clipPath><clipPath id="i"><path d="M823.8 494.7h9.317v-7.958H823.8z"/></clipPath><clipPath id="j"><path d="M875.02 494.7h9.318v-7.958h-9.318z"/></clipPath><clipPath id="k"><path d="M1148.5 1029.8h93.62V857.36h-93.62z"/></clipPath><clipPath id="l"><path d="M1354.6 708.66h127.28V473.28H1354.6z"/></clipPath><clipPath id="m"><path d="M660.13 506.83h21.983v-27.883H660.13z"/></clipPath><clipPath id="n"><path d="M756.34 517.33h10.975v-9.374H756.34z"/></clipPath><clipPath id="o"><path d="M848.39 517.33h10.974v-9.374H848.39z"/></clipPath><clipPath id="p"><path d="M930.98 626.78h11.108v-9.488H930.98z"/></clipPath><clipPath id="q"><path d="M841.54 638.31h20.356v-17.385H841.54z"/></clipPath><clipPath id="r"><path d="M1047.5 721.95h20.35v-17.386h-20.35z"/></clipPath><clipPath id="s"><path d="M954.48 749.81h20.359v-17.385H954.48z"/></clipPath><clipPath id="t"><path d="M871.47 560.51h11.108v-9.487H871.47z"/></clipPath><clipPath id="u"><path d="M823.8 577.23h9.322v-7.962H823.8z"/></clipPath><clipPath id="v"><path d="M766.56 851.72h437.14v-69.442H766.56z"/></clipPath><clipPath id="w"><path d="M372.36 804.12h394.21v-19.271H372.36z"/></clipPath><clipPath id="x"><path d="M569.03 713.02h109.74v-57.893H569.03z"/></clipPath><clipPath id="y"><path d="M987.93 463.73h27.708v-22.294H987.93z"/></clipPath></defs><path d="m1411.298 698.913-89.116 6.629-1.455-19.54 89.118-6.629z" fill="#7e9492"/><g clip-path="url(#a)" transform="matrix(1.3333 0 0 -1.3333 0 2000)"><path d="m1057.9 1002.8-69.486-5.169a2.96 2.96 0 0 1-2.732-3.17l.47-6.301a2.959 2.959 0 0 1 3.17-2.732l69.484 5.169a2.96 2.96 0 0 1 2.732 3.17l-.47 6.302a2.958 2.958 0 0 1-3.168 2.731" fill="#92aba8"/><path d="M1092.6 730.18s76.266-48.594 66.142-113.39c0 0-8.774-43.869-35.77-80.314l-50.657-75.457c-14.12-21.034-33.35-38.201-56.023-49.506-16.869-8.413-37.639-15.419-60.023-15.419l-211.92 11.474s-39.37 8.549-90.214 36.895l-235.77 125.08 46.569 22.272 240.94-130.71s35.995-19.798 95.387-19.798l126.88-6.3s78.29-6.298 107.09 35.996l83.688 127.78s27.897 66.59-41.395 98.986z" fill="#8e816b"/><path d="m1073.5 681.37-18.235 14.364 80.976 102.8 18.237-14.365zm-82.24 27.32-18.235 14.365 80.976 102.8 18.237-14.365z" fill="#111720"/><path d="m558.27 829.95-14.452 8.385c-8.653 5.021-19.736 2.076-24.757-6.576l-12.542-21.618 7.33-4.253-13.262-22.856-1.67.969a4.855 4.855 0 0 1-6.636-1.763l-1.283-2.212a4.855 4.855 0 0 1 1.763-6.637l1.67-.968-5.169-8.909-1.953 1.133a4.857 4.857 0 0 1-6.637-1.762l-1.283-2.212a4.856 4.856 0 0 1 1.762-6.637l1.954-1.133-5.169-8.908-2.236 1.297a4.856 4.856 0 0 1-6.637-1.763l-1.283-2.212a4.857 4.857 0 0 1 1.763-6.637l2.237-1.297-5.169-8.908-2.52 1.461a4.853 4.853 0 0 1-6.636-1.762l-1.283-2.213a4.855 4.855 0 0 1 1.763-6.636l2.519-1.462-5.169-8.908-2.802 1.626a4.855 4.855 0 0 1-6.637-1.763l-1.283-2.212a4.855 4.855 0 0 1 1.763-6.636l2.803-1.627-5.011-8.636-2.803 1.626a4.856 4.856 0 0 1-6.637-1.763l-1.283-2.213a4.853 4.853 0 0 1 1.763-6.635l2.803-1.626-5.011-8.637-2.803 1.626a4.855 4.855 0 0 1-6.636-1.763l-1.284-2.212a4.857 4.857 0 0 1 1.763-6.637l2.803-1.625-5.011-8.637-2.803 1.626a4.855 4.855 0 0 1-6.635-1.762l-1.285-2.213a4.857 4.857 0 0 1 1.764-6.637l2.802-1.626-5.011-8.636-2.802 1.626a4.856 4.856 0 0 1-6.636-1.763l-1.284-2.212a4.855 4.855 0 0 1 1.763-6.636l2.803-1.627-5.012-8.635-2.802 1.625a4.856 4.856 0 0 1-6.637-1.763l-1.283-2.212a4.856 4.856 0 0 1 1.763-6.637l2.803-1.625-5.012-8.637-2.802 1.626a4.855 4.855 0 0 1-6.636-1.763l-1.283-2.212a4.854 4.854 0 0 1 1.762-6.636l2.803-1.626-6.317-10.888-8.511 4.938-17.938-30.917c-5.813-10.018-2.403-22.852 7.615-28.664l12.299-7.137c10.019-5.812 22.852-2.403 28.664 7.616l17.938 30.917-8.51 4.938 6.317 10.887 2.802-1.626a4.857 4.857 0 0 1 6.637 1.762l1.284 2.213a4.856 4.856 0 0 1-1.764 6.637l-2.802 1.626 5.011 8.636 2.802-1.626a4.855 4.855 0 0 1 6.637 1.763l1.283 2.212a4.856 4.856 0 0 1-1.763 6.637l-2.803 1.626 5.012 8.636 2.802-1.626a4.857 4.857 0 0 1 6.637 1.763l1.283 2.211a4.855 4.855 0 0 1-1.763 6.637l-2.803 1.626 5.012 8.636 2.802-1.625a4.855 4.855 0 0 1 6.636 1.763l1.283 2.212a4.857 4.857 0 0 1-1.761 6.637l-2.804 1.625 5.011 8.637 2.802-1.626a4.856 4.856 0 0 1 6.637 1.762l1.284 2.213a4.856 4.856 0 0 1-1.763 6.636l-2.803 1.626 5.011 8.636 2.802-1.625a4.856 4.856 0 0 1 6.637 1.762l1.283 2.213a4.856 4.856 0 0 1-1.762 6.636l-2.804 1.626 5.012 8.637 2.802-1.626a4.854 4.854 0 0 1 6.636 1.763l1.284 2.212a4.855 4.855 0 0 1-1.763 6.636l-2.802 1.626 5.168 8.908 3.086-1.79a4.855 4.855 0 0 1 6.636 1.763l1.284 2.213a4.855 4.855 0 0 1-1.764 6.636l-3.085 1.791 5.168 8.908 3.37-1.955a4.854 4.854 0 0 1 6.635 1.763l1.284 2.212a4.854 4.854 0 0 1-1.763 6.636l-3.368 1.955 5.169 8.908 3.651-2.119a4.855 4.855 0 0 1 6.636 1.764l1.284 2.211a4.856 4.856 0 0 1-1.763 6.637l-3.652 2.119 5.169 8.908 3.935-2.283a4.855 4.855 0 0 1 6.636 1.763l1.283 2.213a4.854 4.854 0 0 1-1.762 6.636l-3.935 2.283 13.261 22.855 6.897-4.003 12.543 21.619c5.02 8.653 2.076 19.736-6.576 24.756" fill="#1a2029"/><path d="M674.02 781.97 572.95 650.01l-13.267 10.161 101.08 131.96z" fill="#2f3640"/><path d="M1038.6 603.34h-73.942v144.08h73.942z" fill="#222931"/><path d="M934.43 733.04h-30.285v55.718h30.285zm-46.22 0h-30.286v55.718h30.286z" fill="#1f252e"/><path d="M977.64 449.71h-242.8v49.387h242.8z" fill="#231f20"/><path d="m1179.5 742.29-36.412 17.545a2.203 2.203 0 0 1-2.941-1.029l-8.798-18.259a2.204 2.204 0 0 1 1.029-2.941l36.412-17.545a2.205 2.205 0 0 1 2.941 1.029l8.797 18.259a2.203 2.203 0 0 1-1.028 2.941m-80.7 38.92-36.412 17.544a2.203 2.203 0 0 1-2.94-1.029l-8.798-18.259a2.203 2.203 0 0 1 1.028-2.941l36.412-17.544a2.202 2.202 0 0 1 2.94 1.028l8.798 18.259a2.204 2.204 0 0 1-1.028 2.942" fill="#6d7684"/><path d="m1131.8 741.42-40.381 19.457 7.956 16.513 40.382-19.457z" fill="#282e37"/><path d="m903.94 595.68-.231 40.417a2.202 2.202 0 0 1-2.215 2.19l-20.269-.115a2.203 2.203 0 0 1-2.19-2.216l.23-40.417a2.206 2.206 0 0 1 2.217-2.191l20.267.117a2.202 2.202 0 0 1 2.191 2.215m-.51 89.64-.23 40.417a2.203 2.203 0 0 1-2.216 2.191l-20.268-.116a2.203 2.203 0 0 1-2.191-2.215l.231-40.418a2.203 2.203 0 0 1 2.216-2.19l20.268.116a2.203 2.203 0 0 1 2.19 2.215" fill="#6d7684"/><path d="m882.19 638.18-.256 44.823 18.329.105.256-44.824z" fill="#282e37"/><path d="M859.36 741.78h79.759v-26.113H859.36zm-7.75-45.73h79.759v-26.113H851.61z" fill="#111720"/><path d="M515.75 565.1c-9.033 0-17.515.148-25.388.397-60.975 1.929-99.761 10.145-100.15 10.228l1.703 7.918c1.515-.325 153.7-31.994 336.17 17.241l2.109-7.82c-82.877-22.362-159-27.964-214.45-27.964" fill="#231f20"/><path d="m713.85 580.63-1.584 7.942c78.519 15.661 122.86 119.92 123.3 120.97l7.474-3.12c-.464-1.112-11.613-27.566-33.031-56.442-28.569-38.518-61.821-62.497-96.163-69.346M656.28 617.05l-1.584 7.942c78.519 15.661 122.86 119.91 123.3 120.97l7.474-3.12c-.464-1.112-11.613-27.566-33.031-56.443-28.569-38.517-61.822-62.496-96.163-69.345" fill="#231f20"/><path d="M825.64 609.9H601.2v7.039h224.44z" fill="#7f2a25"/><path d="m833.26 475.13-489.52-76.279-1.47 9.431 489.52 76.28z" fill="#111720"/><path d="m337.45 583.58-85.52-55.252-25.028 38.74 85.518 55.252z" fill="#95745a"/><path d="m313.5 582.64 10.969-16.978a2.85 2.85 0 0 1 3.939-.847l12.534 8.098a2.848 2.848 0 0 1 .846 3.938l-10.969 16.978zm-18.88-36.26a2.849 2.849 0 0 1 3.94-.847l12.533 8.097a2.85 2.85 0 0 1 .847 3.939l-10.969 16.978-17.319-11.19zm-38.35-24.78a2.848 2.848 0 0 1 3.939-.847l12.534 8.097a2.85 2.85 0 0 1 .846 3.94l-10.968 16.977-17.32-11.189z" fill="#95745a"/><path d="m307.66 630.06-29.055-18.771a3.46 3.46 0 0 1-1.028-4.784l17.447-27.004a3.458 3.458 0 0 1 4.782-1.028l29.056 18.772a3.46 3.46 0 0 1 1.028 4.783l-17.447 27.004a3.46 3.46 0 0 1-4.783 1.028m-44.13-34.32-39.974-25.826a3.458 3.458 0 0 1-1.027-4.782l14.796-22.903a3.46 3.46 0 0 1 4.783-1.029l39.973 25.827a3.459 3.459 0 0 1 1.028 4.782l-14.796 22.902a3.46 3.46 0 0 1-4.783 1.029" fill="#c99977"/><path d="M334.33 571.63a6.459 6.459 0 0 0-9.135.034c-2.513 2.531-2.498 6.621.034 9.134s6.621 2.499 9.134-.033a6.46 6.46 0 0 0-.033-9.135" fill="#adc8c5"/><path d="M332.96 573.01a4.515 4.515 0 1 0-6.361 6.409 4.515 4.515 0 0 0 6.361-6.409" fill="#84a7a3"/><g clip-path="url(#b)" opacity=".2"><path d="m330.66 571.79-1.691 8.866a4.514 4.514 0 1 1 1.691-8.866" fill="#414142"/></g><path d="M303.52 552.51a6.46 6.46 0 1 0-9.101 9.17 6.46 6.46 0 0 0 9.101-9.17" fill="#adc8c5"/><path d="M302.15 553.89a4.514 4.514 0 1 0-6.361 6.406 4.514 4.514 0 0 0 6.361-6.406" fill="#84a7a3"/><g clip-path="url(#c)" opacity=".2"><path d="m299.85 552.67-1.69 8.865a4.512 4.512 0 1 1 1.69-8.865" fill="#414142"/></g><path d="M266.11 528.93a6.46 6.46 0 0 0-9.102 9.169 6.46 6.46 0 0 0 9.102-9.169" fill="#adc8c5"/><path d="M264.74 530.31a4.514 4.514 0 1 0-6.361 6.406 4.514 4.514 0 0 0 6.361-6.406" fill="#84a7a3"/><g clip-path="url(#d)" opacity=".2"><path d="m262.44 529.09-1.691 8.866a4.514 4.514 0 1 1 1.691-8.866" fill="#414142"/></g><path d="M391.29 440.6c-5.178 5.159-11.796 12.7-19.398 8.262-3.253-1.9-3.909-5.705-3.302-9.173.717-4.09 2.674-8.099 4.42-11.964a76.373 76.373 0 0 0-34.543-8.231 76.385 76.385 0 0 0-39.646 11.041c3.885 6.162 9.569 14.169 3.629 20.525-2.571 2.752-6.427 2.551-9.674 1.192-4.061-1.699-7.725-4.736-11.299-7.411-12.341 13.64-19.869 31.712-19.869 51.511 0 2.647.135 5.262.397 7.84 6.842-.928 14.909-1.666 17.878 5.552 1.433 3.483-.355 6.906-2.942 9.294-2.752 2.54-6.265 4.415-9.667 6.234 9.394 23.038 29.648 40.52 54.375 46.063 1.236-4.552 2.196-9.574 4.457-13.69 1.695-3.086 4.587-5.645 8.313-5.092 9.342 1.385 9.175 12.823 10.155 20.12l.036.272c28.991-2.306 53.501-20.75 64.502-46.338-4.098-2.276-8.698-4.408-12.122-7.569-2.587-2.388-4.375-5.811-2.942-9.294 3.412-8.292 13.552-6.087 20.832-5.153.29-2.708.447-5.455.447-8.239 0-21.934-9.25-41.736-24.037-55.752m-52.823 158.51c-56.662 0-102.76-46.098-102.76-102.76 0-56.663 46.099-102.76 102.76-102.76 56.663 0 102.76 46.098 102.76 102.76 0 56.664-46.099 102.76-102.76 102.76" fill="#84a7a3"/><path d="M338.47 400.24c-52.996 0-96.11 43.115-96.11 96.11 0 52.997 43.114 96.112 96.11 96.112 52.997 0 96.112-43.115 96.112-96.112 0-52.995-43.115-96.11-96.112-96.11m0 198.87c-56.662 0-102.76-46.099-102.76-102.76 0-56.662 46.099-102.76 102.76-102.76 56.664 0 102.76 46.098 102.76 102.76 0 56.664-46.099 102.76-102.76 102.76" fill="#a6bbb4"/><path d="M476.26 444.26c-6.513-17.376-15.965-32.792-27.577-45.9-6.742-7.611-18.776-7.171-24.847.985-18.394 24.714-32.345 51.471-37.719 63.51a54.67 54.67 0 0 1 4.61 9.367c1.581 4.197 2.545 8.464 3.058 12.726 11.671 5.472 41.161 17.05 72.548 23.611 10.129 2.118 19.495-5.818 19.256-16.163-.371-16.031-3.383-32.271-9.329-48.136m-89.462-87.309c-31.315-10.914-66.476-11.366-99.959 1.187-.622.233-1.242.471-1.859.712-9.35 3.654-13.103 14.918-7.755 23.415 16.081 25.547 35.523 47.831 45.005 57.484a54.234 54.234 0 0 1 27.189-1.967c10.685-10.808 29.973-32.573 45.729-57.128 5.586-8.707 1.419-20.299-8.35-23.703m-164.01 48.084c-21.389 27.284-32.77 61.66-31.315 96.913.425 10.273 10.195 17.517 20.135 14.888 33.181-8.774 63.957-23.202 73.533-28.637a54.582 54.582 0 0 1 5.062-19.918c-5.53-11.127-21.661-38.794-42.505-63.685-6.546-7.819-18.618-7.586-24.91.439m-6.32 173.08c21.894 32.556 55.681 54.49 93.063 62.029 9.725 1.962 18.817-5.479 19.028-15.397.689-32.44-4.999-66.075-8.765-82.497a54.545 54.545 0 0 1-22.092-15.886c-14.263 3.49-46.24 13.414-75.287 28.579-8.49 4.432-11.291 15.225-5.947 23.172m150.17 44.229c1.698 9.741 11.847 15.49 21.164 12.182.778-.276 1.555-.56 2.332-.851 34.884-13.077 61.853-37.993 78.106-68.47 4.729-8.868.016-19.843-9.61-22.735-31.643-9.508-64.982-13.265-78.988-13.956a54.154 54.154 0 0 1-17.457 12.575c-1.053 11.03-1.607 46.487 4.453 81.255m130.98-109.3c.135.009.276.027.414.034a160.241 160.241 0 0 1-9.891 40.502c-.104-.052-.215-.097-.323-.144-15.878 41.17-48.579 75.638-93.148 92.348-82.778 31.03-175.03-10.918-206.07-93.695-31.028-82.776 10.92-175.03 93.693-206.06 43.528-16.319 89.667-12.432 128.16 6.933.04-.098.092-.192.136-.289 12.067 6.042 23.397 13.586 33.652 22.529-.097.095-.183.197-.275.29 19.276 16.853 34.781 38.575 44.396 64.228 9.083 24.223 11.87 49.253 9.258 73.328" fill="#111720"/><path d="M338.47 348.56c-81.625 0-147.79 66.169-147.79 147.79 0 81.625 66.169 147.79 147.79 147.79 81.624 0 147.79-66.169 147.79-147.79 0-81.624-66.169-147.79-147.79-147.79m0 315.97c-92.88 0-168.17-75.294-168.17-168.17 0-92.878 75.294-168.17 168.17-168.17 92.879 0 168.17 75.295 168.17 168.17 0 92.88-75.294 168.17-168.17 168.17" fill="#111720"/><path d="M338.47 328.18c-92.88 0-168.17 75.295-168.17 168.17 0 92.88 75.294 168.18 168.17 168.18 92.879 0 168.17-75.295 168.17-168.18 0-92.878-75.294-168.17-168.17-168.17m0 409.5c-133.28 0-241.32-108.04-241.32-241.32 0-133.28 108.04-241.32 241.32-241.32 133.28 0 241.32 108.04 241.32 241.32 0 133.28-108.04 241.32-241.32 241.32" fill="#353633"/><path d="M338.47 267.61c-126.33 0-228.74 102.41-228.74 228.74s102.41 228.74 228.74 228.74c126.33 0 228.74-102.41 228.74-228.74S464.8 267.61 338.47 267.61m0 470.06c-133.28 0-241.32-108.04-241.32-241.32 0-133.28 108.04-241.32 241.32-241.32 133.28 0 241.32 108.04 241.32 241.32 0 133.28-108.04 241.32-241.32 241.32" fill="#474749"/><path d="M338.47 328.18c-92.88 0-168.17 75.295-168.17 168.17 0 92.88 75.294 168.18 168.17 168.18 92.879 0 168.17-75.295 168.17-168.18 0-92.878-75.294-168.17-168.17-168.17m0 353.65c-102.44 0-185.48-83.043-185.48-185.48 0-102.44 83.041-185.48 185.48-185.48 102.44 0 185.48 83.042 185.48 185.48 0 102.44-83.042 185.48-185.48 185.48" fill="#474749"/><path d="M377.32 499.14a38.78 38.78 0 0 1-8.805 21.984l4.353 4.353c6.107-7.2 9.998-16.331 10.612-26.337zm-9.418-28.277c5.082 5.861 8.453 13.244 9.31 21.37h6.168c-.893-9.818-4.943-18.731-11.125-25.724zm-26.255-13.336a38.76 38.76 0 0 1 21.29 8.531l4.366-4.366a44.887 44.887 0 0 0-25.656-10.325zm-27.954 8.775a38.78 38.78 0 0 1 21.047-8.733v-6.16c-9.639.793-18.425 4.626-25.4 10.541zm-13.965 25.931c.842-7.989 4.113-15.261 9.053-21.074l-4.352-4.354c-6.038 6.948-9.989 15.749-10.869 25.428zm8.453 28.582a38.755 38.755 0 0 1-8.561-21.675h-6.16a44.885 44.885 0 0 0 10.355 26.042zm26.559 14.311c-8.277-.79-15.801-4.184-21.755-9.347l-4.353 4.353c7.083 6.263 16.139 10.334 26.108 11.154zm28.918-9.09c-6.039 5.132-13.655 8.454-22.011 9.132v6.16c10.048-.703 19.194-4.708 26.365-10.939zm-6.421-26.896a18.87 18.87 0 0 1-2.969 7.737l4.858 4.858c2.687-3.598 4.474-7.902 4.983-12.595zm-3.528-14.085a18.894 18.894 0 0 1 3.295 7.178h6.902a25.668 25.668 0 0 0-5.346-12.029zm-12.062-7.416a18.866 18.866 0 0 1 7.009 2.701l4.885-4.885a25.648 25.648 0 0 0-11.894-4.688zm-13.707 2.91a18.922 18.922 0 0 1 6.8-2.826v-6.871a25.635 25.635 0 0 0-11.658 4.839zm-8.004 11.684a18.88 18.88 0 0 1 3.058-6.862l-4.851-4.851a25.644 25.644 0 0 0-5.11 11.713zm2.527 14.3a18.83 18.83 0 0 1-2.761-7.393h-6.871c.493 4.556 2.19 8.746 4.746 12.279zm12.277 8.438a18.899 18.899 0 0 1-7.563-3.384l-4.851 4.85a25.678 25.678 0 0 0 12.414 5.407zm14.706-3.148a18.865 18.865 0 0 1-7.799 3.233v6.872a25.65 25.65 0 0 0 12.65-5.254zm-10.977 52.648c-37.563 0-68.123-30.56-68.123-68.124 0-37.562 30.56-68.123 68.123-68.123 37.564 0 68.124 30.561 68.124 68.123 0 37.564-30.56 68.124-68.124 68.124" fill="#242b33"/><path d="m921.36 501.28-622.5-31.533a6.65 6.65 0 0 0-6.979 6.306l-1.664 32.828a6.652 6.652 0 0 0 6.307 6.979l622.5 31.533z" fill="#111720"/><path d="m382.65 540.49-31.557 18.309 147.41 254.07 31.557-18.309z" fill="#242b33"/><path d="m471.66 687.44-37.163 21.562a4.856 4.856 0 0 1-6.636-1.763l-1.284-2.213a4.856 4.856 0 0 1 1.763-6.636l37.162-21.561a4.855 4.855 0 0 1 6.637 1.762l1.283 2.212a4.856 4.856 0 0 1-1.762 6.637m11.6 19.35-37.162 21.562a4.856 4.856 0 0 1-6.637-1.763l-1.284-2.212a4.856 4.856 0 0 1 1.763-6.636l37.162-21.562a4.856 4.856 0 0 1 6.637 1.763l1.284 2.212a4.856 4.856 0 0 1-1.763 6.636m11.61 19.36-37.162 21.561a4.856 4.856 0 0 1-6.637-1.763l-1.284-2.212a4.855 4.855 0 0 1 1.764-6.636l37.162-21.562a4.855 4.855 0 0 1 6.636 1.763l1.284 2.212a4.856 4.856 0 0 1-1.763 6.637m11.61 19.35-37.162 21.562a4.855 4.855 0 0 1-6.636-1.763l-1.285-2.213a4.857 4.857 0 0 1 1.764-6.636l37.162-21.561a4.854 4.854 0 0 1 6.636 1.762l1.285 2.213a4.857 4.857 0 0 1-1.764 6.636m11.61 19.36-37.163 21.562a4.855 4.855 0 0 1-6.636-1.763l-1.284-2.212a4.856 4.856 0 0 1 1.763-6.636l37.163-21.562a4.854 4.854 0 0 1 6.636 1.763l1.284 2.212a4.857 4.857 0 0 1-1.763 6.636m-57.6-96.67-37.163 21.562a4.855 4.855 0 0 1-6.636-1.763l-1.284-2.213a4.856 4.856 0 0 1 1.764-6.636l37.162-21.562a4.855 4.855 0 0 1 6.636 1.763l1.284 2.213a4.856 4.856 0 0 1-1.763 6.636m-11.17-19.25-37.163 21.562a4.855 4.855 0 0 1-6.636-1.763l-1.283-2.213a4.853 4.853 0 0 1 1.763-6.635l37.162-21.563a4.856 4.856 0 0 1 6.636 1.763l1.284 2.213a4.855 4.855 0 0 1-1.763 6.636m-11.17-19.25-37.163 21.562a4.855 4.855 0 0 1-6.636-1.764l-1.283-2.211a4.856 4.856 0 0 1 1.763-6.637l37.163-21.561a4.854 4.854 0 0 1 6.635 1.762l1.284 2.213a4.855 4.855 0 0 1-1.763 6.636m-11.17-19.25-37.163 21.562a4.854 4.854 0 0 1-6.636-1.763l-1.283-2.213a4.855 4.855 0 0 1 1.763-6.636l37.162-21.562a4.854 4.854 0 0 1 6.636 1.764l1.284 2.212a4.855 4.855 0 0 1-1.763 6.636m-11.16-19.24-37.163 21.562a4.855 4.855 0 0 1-6.636-1.763l-1.283-2.213a4.853 4.853 0 0 1 1.763-6.635l37.162-21.563a4.854 4.854 0 0 1 6.636 1.764l1.284 2.212a4.855 4.855 0 0 1-1.763 6.636m-11.17-19.25-37.162 21.562a4.856 4.856 0 0 1-6.637-1.763l-1.284-2.213a4.855 4.855 0 0 1 1.763-6.635l37.162-21.562a4.856 4.856 0 0 1 6.637 1.762l1.284 2.213a4.856 4.856 0 0 1-1.763 6.636" fill="#111720"/><path d="m349.3 575.32-17.937-30.917c-5.813-10.018-2.404-22.851 7.614-28.664l12.3-7.135c10.017-5.813 22.85-2.404 28.663 7.614l17.938 30.917z" fill="#404853"/><path d="M375.25 527.68c-3.667-9.193-14.092-13.673-23.285-10.006s-13.673 14.092-10.007 23.285c3.667 9.193 14.093 13.673 23.286 10.006s13.673-14.092 10.006-23.285" fill="#adc8c5"/><path d="M370.24 529.68c-2.563-6.424-9.848-9.555-16.273-6.993s-9.556 9.849-6.993 16.274c2.562 6.425 9.848 9.555 16.273 6.993 6.425-2.563 9.556-9.849 6.993-16.274" fill="#84a7a3"/><g clip-path="url(#e)" opacity=".2"><path d="m365.74 524.04-14.098 20.695a12.467 12.467 0 0 1-4.675-5.769c-2.562-6.425.568-13.712 6.993-16.274 4.052-1.616 8.445-.964 11.78 1.348" fill="#414142"/></g><path d="m540.28 832.37-14.452 8.385c-8.652 5.021-19.736 2.076-24.756-6.576l-12.543-21.619 45.785-26.564 12.542 21.618c5.021 8.652 2.076 19.736-6.576 24.756" fill="#2f3640"/><path d="M560.21 557.08c-8.249 0-14.935 6.687-14.935 14.935 0 8.249 6.686 14.935 14.935 14.935s14.935-6.686 14.935-14.935c0-8.248-6.686-14.935-14.935-14.935m-44.182 0c-8.248 0-14.935 6.687-14.935 14.935 0 8.249 6.687 14.935 14.935 14.935s14.935-6.686 14.935-14.935c0-8.248-6.687-14.935-14.935-14.935m-44.182 0c-8.248 0-14.935 6.687-14.935 14.935 0 8.249 6.687 14.935 14.935 14.935s14.935-6.686 14.935-14.935c0-8.248-6.687-14.935-14.935-14.935m-44.182 0c-8.248 0-14.935 6.687-14.935 14.935 0 8.249 6.687 14.935 14.935 14.935 8.249 0 14.936-6.686 14.936-14.935 0-8.248-6.687-14.935-14.936-14.935m-44.182 0c-8.249 0-14.935 6.687-14.935 14.935 0 8.249 6.686 14.935 14.935 14.935s14.935-6.686 14.935-14.935c0-8.248-6.686-14.935-14.935-14.935m-38.067 40.234s-48.196-11.224-54.799-51.497h315.45l108.94-50.837 40.273 102.33z" fill="#1f252e"/><path d="M965.07 715.35c.096.036.963.372 1.642 1.307l-6.558 4.756c.913 1.253 1.583 1.44 5.301 2.477 41.432 11.545 116.74 41.946 155.56 115.82l7.169-3.767c-40.234-76.571-117.86-107.96-160.55-119.86-1.119-.312-2.276-.634-2.559-.738" fill="#231f20"/><path d="m981.46 597.34 75.441-22.985 38.829 127.44-75.441 22.985z" fill="#2f3640"/><path d="m1064.5 588.82-81.317 24.776c-1.081.329-2.314-.579-2.756-2.028l-.862-2.828c-.441-1.449.077-2.891 1.158-3.22l81.317-24.776c1.079-.33 2.314.579 2.756 2.029l.861 2.826c.442 1.45-.076 2.891-1.157 3.221m4.3 14.14-81.317 24.775c-1.082.33-2.316-.579-2.757-2.028l-.861-2.827c-.441-1.449.077-2.891 1.156-3.22l81.318-24.776c1.08-.33 2.315.578 2.757 2.028l.86 2.827c.441 1.449-.075 2.891-1.156 3.221m4.3 14.13-81.317 24.776c-1.082.329-2.316-.579-2.757-2.028l-.861-2.828c-.441-1.449.076-2.89 1.156-3.22l81.318-24.776c1.08-.329 2.314.579 2.757 2.029l.86 2.826c.441 1.45-.077 2.892-1.156 3.221m4.3 14.13-81.318 24.775c-1.08.33-2.314-.579-2.755-2.028l-.863-2.827c-.44-1.449.078-2.891 1.158-3.22l81.318-24.777c1.079-.328 2.313.579 2.755 2.029l.862 2.827c.441 1.45-.077 2.891-1.157 3.221m4.3 14.13-81.316 24.775c-1.082.33-2.316-.578-2.757-2.028l-.861-2.827c-.442-1.449.077-2.891 1.156-3.221l81.318-24.775c1.081-.33 2.314.579 2.755 2.028l.862 2.827c.441 1.449-.075 2.891-1.157 3.221m4.4 14.14-81.315 24.775c-1.081.33-2.316-.579-2.757-2.029l-.861-2.826c-.443-1.449.075-2.891 1.157-3.221l81.317-24.776c1.079-.329 2.314.579 2.756 2.029l.862 2.827c.441 1.449-.077 2.891-1.159 3.221m4.3 14.13-81.317 24.776c-1.079.329-2.314-.579-2.755-2.029l-.862-2.827c-.442-1.449.076-2.89 1.158-3.22l81.316-24.776c1.08-.329 2.314.579 2.755 2.029l.861 2.826c.444 1.45-.074 2.892-1.156 3.221m4.3 14.13-81.317 24.775c-1.081.33-2.315-.579-2.756-2.028l-.861-2.827c-.442-1.449.076-2.891 1.156-3.22l81.318-24.777c1.08-.328 2.314.579 2.755 2.029l.861 2.827c.443 1.45-.075 2.891-1.156 3.221" fill="#404853"/><path d="m1018 724.18 79.563-24.243a2.756 2.756 0 0 1 3.438 1.833l7.432 24.394a2.755 2.755 0 0 1-1.832 3.437l-79.563 24.241a2.753 2.753 0 0 1-3.437-1.831l-7.432-24.394a2.751 2.751 0 0 1 1.831-3.437" fill="#b1ae8a"/><path d="m1065.9 727.49 30.816-9.389a2.752 2.752 0 0 1 3.436 1.832l4.635 15.213a2.752 2.752 0 0 1-1.831 3.437l-30.816 9.389a2.754 2.754 0 0 1-3.437-1.832l-4.634-15.212a2.753 2.753 0 0 1 1.831-3.438" fill="#c8c49a"/><path d="m888.96 625.14 75.442-22.986 38.829 127.44-75.443 22.985z" fill="#2f3640"/><path d="m972.02 616.62-81.318 24.775c-1.08.329-2.314-.578-2.756-2.028l-.861-2.827c-.441-1.449.076-2.891 1.157-3.221l81.317-24.776c1.08-.328 2.315.579 2.755 2.029l.862 2.827c.442 1.45-.076 2.891-1.156 3.221m4.3 14.14-81.319 24.775c-1.08.33-2.314-.579-2.755-2.028l-.862-2.827c-.441-1.449.076-2.891 1.157-3.22l81.318-24.777c1.079-.328 2.315.58 2.755 2.029l.862 2.827c.442 1.45-.077 2.891-1.156 3.221m4.31 14.13-81.317 24.775c-1.08.329-2.314-.579-2.756-2.029l-.861-2.826c-.441-1.45.076-2.891 1.157-3.221l81.317-24.776c1.081-.329 2.314.579 2.755 2.029l.864 2.827c.441 1.449-.077 2.891-1.159 3.221m4.3 14.13-81.317 24.776c-1.081.329-2.315-.579-2.756-2.029l-.861-2.826c-.441-1.449.076-2.892 1.156-3.221l81.318-24.776c1.081-.329 2.314.58 2.755 2.029l.861 2.827c.442 1.449-.075 2.891-1.156 3.22m4.31 14.14-81.317 24.776c-1.079.329-2.314-.579-2.756-2.029l-.861-2.827c-.441-1.449.077-2.891 1.157-3.22l81.318-24.776c1.079-.329 2.313.579 2.756 2.029l.86 2.827c.443 1.449-.075 2.891-1.157 3.22m4.31 14.13-81.317 24.776c-1.081.33-2.315-.579-2.756-2.028l-.861-2.827c-.442-1.45.076-2.891 1.156-3.22l81.318-24.776c1.08-.329 2.314.579 2.755 2.028l.861 2.827c.443 1.449-.074 2.891-1.156 3.22m4.3 14.13-81.317 24.776c-1.081.329-2.315-.579-2.756-2.029l-.862-2.826c-.441-1.45.076-2.892 1.157-3.221l81.317-24.776c1.081-.329 2.315.579 2.756 2.029l.861 2.827c.443 1.449-.075 2.891-1.156 3.22m4.35 14.13-81.318 24.776c-1.079.329-2.313-.58-2.754-2.029l-.864-2.826c-.44-1.45.078-2.892 1.159-3.221l81.317-24.776c1.08-.329 2.314.58 2.755 2.029l.862 2.827c.443 1.449-.077 2.891-1.157 3.22" fill="#404853"/><path d="m925.5 751.99 79.564-24.241a2.754 2.754 0 0 1 3.438 1.831l7.433 24.394a2.755 2.755 0 0 1-1.832 3.437l-79.565 24.242a2.753 2.753 0 0 1-3.436-1.831l-7.433-24.395a2.754 2.754 0 0 1 1.831-3.437" fill="#b1ae8a"/><path d="m973.37 755.3 30.816-9.39a2.755 2.755 0 0 1 3.437 1.832l4.635 15.214a2.755 2.755 0 0 1-1.832 3.437l-30.815 9.389a2.753 2.753 0 0 1-3.437-1.832l-4.637-15.213a2.755 2.755 0 0 1 1.833-3.437" fill="#c8c49a"/><path d="m1014.2 527.91-4.743 6.566c71.39 51.557 94.752 123.41 101.78 174.61 7.65 55.753-1.828 99.868-1.926 100.31l7.911 1.746c.405-1.841 9.865-45.74 2.077-102.87-7.205-52.857-31.287-127.05-105.1-180.36" fill="#231f20"/><path d="m1020.3 500.99-4.882 6.462c74.007 55.915 97.707 134.94 104.56 191.4 7.443 61.339-2.793 109.89-2.896 110.37l7.916 1.709c.438-2.028 10.626-50.374 3.019-113.05-4.474-36.867-14.241-70.94-29.029-101.27-18.52-37.987-44.994-70.155-78.686-95.611" fill="#231f20"/><path d="M780.69 673.22c-21.895 0-39.707-17.812-39.707-39.708V544.91h28.347v88.602c0 6.266 5.095 11.362 11.36 11.362h42.119v28.346z" fill="#6c746f"/><path d="M663.58 767.93h155.45v-26.113H663.58z" fill="#344141"/><path d="M696.35 694.44h11.84v38.381h-11.84zm-83.09 0h11.841v38.381H613.26zm63.9 0h11.841v38.381H677.16zm-33.89 0h33.889v52.468H643.27z" fill="#404853"/><path d="M643.27 746.91h48.18v21.027h-48.18z" fill="#2f3640"/><path d="M691.45 738.54h16.741v32.257H691.45z" fill="#404853"/><path d="M686.76 770.79h26.132v6.737H686.76z" fill="#4f5763"/><path d="M626.43 767.93h50.733v6.737H626.43z" fill="#404853"/><path d="M686.76 782.02h26.132v6.737H686.76z" fill="#4f5763"/><path d="M688.13 777.53h23.376v4.492H688.13z" fill="#2f3640"/><path d="M647.76 757.42c0-5.524-4.479-10.003-10.003-10.003-5.525 0-10.004 4.479-10.004 10.003 0 5.525 4.479 10.004 10.004 10.004 5.524 0 10.003-4.479 10.003-10.004" fill="#4f5763"/><path d="M625.1 697.09h18.17v31.848H625.1zm63.9 0h7.35v31.848H689z" fill="#2f3640"/><path d="M643.27 719.55h-15.517v4.287h15.517z" fill="#404853"/><path d="M668.79 762.42h4.287v-15.516h-4.287zm-12.4 0h4.287v-15.516h-4.287z" fill="#4f5763"/><path d="M643.27 702.4h-15.517v4.286h15.517z" fill="#404853"/><path d="M684.38 762.42h-7.223v-29.603h7.223zm-26.46-34.91h-6.005a1.325 1.325 0 0 1-1.324-1.325v-32.823c0-.73.593-1.324 1.324-1.324h6.005c.731 0 1.325.594 1.325 1.324v32.823c0 .732-.594 1.325-1.325 1.325m16.77 0h-6.005a1.325 1.325 0 0 1-1.324-1.325v-32.823c0-.73.593-1.324 1.324-1.324h6.005c.731 0 1.325.594 1.325 1.324v32.823c0 .732-.594 1.325-1.325 1.325" fill="#4f5763"/><path d="M623.9 764.87c-30.256 0-54.87-24.615-54.87-54.871 0-30.255 24.614-54.871 54.87-54.871s54.871 24.616 54.871 54.871c0 30.256-24.615 54.871-54.871 54.871" fill="#f7931d"/><path d="m544.08 714.88 43.689 57.741h-89.21zm286.98-123.9h-28.619v190.79h28.619z" fill="#111720"/><path d="M787.23 580.68h-44.361a5.26 5.26 0 0 0-5.262 5.261v34.237a5.262 5.262 0 0 0 5.262 5.262h44.361a5.261 5.261 0 0 0 5.26-5.262v-34.237a5.26 5.26 0 0 0-5.26-5.261m63.01 0h-44.362a5.261 5.261 0 0 0-5.261 5.261v34.237a5.262 5.262 0 0 0 5.261 5.262h44.362a5.261 5.261 0 0 0 5.26-5.262v-34.237a5.26 5.26 0 0 0-5.26-5.261m370.56 191.94H443.35v81.89h777.45z" fill="#2f3640"/><path d="M796.02 793 634.06 581.56l-18.241 13.971 161.96 211.44z" fill="#2f3640"/><path d="M897.32 493.76h-80.573v109.31h80.573z" fill="#ae9d81"/><path d="M927.58 465.8h-140c-11.266 0-20.399 9.133-20.399 20.399v27.762h160.4zM792.49 603.07h-90.887s-20.931-13.67-26.664-38.594v-24.042l77.056-39.126z" fill="#ae9d81"/><path d="m993.4 627.04-.364.077a89.393 89.393 0 0 1-11.615 2.469s-120.17 25.54-120.31 25.571c-11.641 2.474-23.941-.125-29.744-11.462-4.361-8.521-5.341-20.896-.852-29.569 11.414-22.052 22.829-44.106 34.168-66.197 5.738-11.178 11.818-22.261 17.172-33.627 4.603-9.771 8.484-19.914 15.115-28.577 0 0 .032-.061.04-.05 16.465-21.478 42.372-35.338 71.524-35.338 49.756 0 90.091 40.335 90.091 90.091 0 41.131-27.575 75.799-65.222 86.612" fill="#b1ae8a"/><path d="m1107.9 903.2 92.537 50.172 57.341-105.76-92.537-50.17z" fill="#111720"/><path d="m1097 967.07 104.98 7.745 2.958-40.085-104.98-7.745z" fill="#111720"/><path d="m1264.1 847.49-217.68-403.43c-7.538-13.928-24.938-19.11-38.867-11.574l231.33 428.65z" fill="#2f3640"/><g clip-path="url(#f)" opacity=".15"><path d="M1732.5 254.3c0-26.048-361.05-47.165-806.42-47.165-445.37 0-806.42 21.117-806.42 47.165 0 26.049 361.04 47.165 806.42 47.165 445.37 0 806.42-21.116 806.42-47.165" fill="#414142"/></g><path d="M1200.3 920.54s-29.779 44.364-53.45 60.629c0 0-174.1 28.837-337.5-70.98 0 0-42.761-22.215-42.761-51.743v-58.979s6.3-14.419 18.898-14.419l323.57-2.772 67.577 12.2s10.309 2.772 16.608 19.963l19.472 69.217s-.508 20.356-12.409 36.884" fill="#f7931d"/><path d="M1200.3 920.54s-29.779 44.364-53.45 60.63c0 0-174.1 28.836-337.5-70.981 0 0-23.129-12.032-35.363-30.144 9.11 7.142 17.157 11.327 17.157 11.327 163.41 99.817 337.5 70.981 337.5 70.981 23.671-16.267 53.452-60.629 53.452-60.629 11.9-16.529 12.408-36.885 12.408-36.885l-19.472-69.217a59.482 59.482 0 0 0-.59-1.541l2.187.395s10.309 2.772 16.608 19.963l19.472 69.217s-.508 20.356-12.409 36.884" fill="#f8ae5d"/><path d="M1120.3 902.58s-23.231 34.607-41.695 47.296c0 0-135.81 22.496-263.29-55.372 0 0-33.357-17.33-33.357-40.363v-46.01s4.914-11.248 14.743-11.248l252.41-2.162 52.716 9.516s8.042 2.163 12.957 15.574l15.19 53.996s-.397 15.88-9.681 28.773" fill="#ffd991"/><path d="M1610 444.26c-6.513-17.376-15.965-32.792-27.577-45.9-6.743-7.611-18.776-7.171-24.847.985-18.396 24.714-32.346 51.471-37.719 63.51a54.593 54.593 0 0 1 4.609 9.367c1.581 4.197 2.546 8.464 3.058 12.726 11.672 5.472 41.161 17.05 72.549 23.611 10.129 2.118 19.494-5.818 19.255-16.163-.37-16.031-3.383-32.271-9.328-48.136m-89.463-87.309c-31.315-10.914-66.476-11.366-99.959 1.187-.621.233-1.242.471-1.858.712-9.351 3.654-13.103 14.918-7.756 23.415 16.082 25.547 35.522 47.831 45.005 57.484a54.235 54.235 0 0 1 27.189-1.967c10.685-10.808 29.974-32.573 45.729-57.128 5.587-8.707 1.418-20.299-8.35-23.703m-164.01 48.084c-21.387 27.284-32.77 61.66-31.314 96.913.423 10.273 10.194 17.517 20.134 14.888 33.181-8.774 63.957-23.202 73.532-28.637a54.604 54.604 0 0 1 5.064-19.918c-5.532-11.127-21.661-38.794-42.506-63.685-6.547-7.819-18.618-7.586-24.91.439m-6.32 173.08c21.894 32.556 55.681 54.49 93.063 62.029 9.725 1.962 18.817-5.479 19.028-15.397.689-32.44-4.998-66.075-8.764-82.497a54.541 54.541 0 0 1-22.093-15.886c-14.263 3.49-46.241 13.414-75.287 28.579-8.49 4.432-11.291 15.225-5.947 23.172m150.17 44.229c1.697 9.741 11.846 15.49 21.165 12.182.778-.276 1.554-.56 2.329-.851 34.886-13.077 61.856-37.993 78.108-68.47 4.729-8.868.017-19.843-9.609-22.735-31.643-9.508-64.982-13.265-78.99-13.956a54.138 54.138 0 0 1-17.456 12.575c-1.053 11.03-1.606 46.487 4.453 81.255m130.98-109.3c.135.009.276.027.413.034a160.284 160.284 0 0 1-9.891 40.502c-.103-.052-.215-.097-.323-.144-15.877 41.17-48.58 75.638-93.146 92.348-82.779 31.03-175.04-10.918-206.07-93.695-31.028-82.776 10.921-175.03 93.694-206.06 43.528-16.319 89.666-12.432 128.16 6.933.041-.098.093-.192.138-.289 12.066 6.042 23.394 13.586 33.651 22.529-.098.095-.184.197-.276.29 19.276 16.853 34.781 38.575 44.397 64.228 9.084 24.223 11.869 49.253 9.258 73.328" fill="#111720"/><path d="M1472.3 348.56c-81.624 0-147.79 66.169-147.79 147.79 0 81.625 66.168 147.79 147.79 147.79 81.625 0 147.79-66.169 147.79-147.79 0-81.624-66.168-147.79-147.79-147.79m0 315.97c-92.879 0-168.17-75.294-168.17-168.17 0-92.878 75.293-168.17 168.17-168.17s168.17 75.295 168.17 168.17c0 92.88-75.295 168.17-168.17 168.17" fill="#111720"/><path d="M1472.3 328.18c-92.879 0-168.17 75.295-168.17 168.17 0 92.88 75.293 168.18 168.17 168.18s168.17-75.295 168.17-168.18c0-92.878-75.295-168.17-168.17-168.17m0 409.5c-133.28 0-241.32-108.04-241.32-241.32 0-133.28 108.04-241.32 241.32-241.32 133.28 0 241.32 108.04 241.32 241.32 0 133.28-108.04 241.32-241.32 241.32" fill="#353633"/><path d="M1472.3 267.61c-126.33 0-228.74 102.41-228.74 228.74s102.41 228.74 228.74 228.74 228.74-102.41 228.74-228.74-102.41-228.74-228.74-228.74m0 470.06c-133.28 0-241.32-108.04-241.32-241.32 0-133.28 108.04-241.32 241.32-241.32 133.28 0 241.32 108.04 241.32 241.32 0 133.28-108.04 241.32-241.32 241.32" fill="#474749"/><path d="M1472.3 328.18c-92.879 0-168.17 75.295-168.17 168.17 0 92.88 75.293 168.18 168.17 168.18s168.17-75.295 168.17-168.18c0-92.878-75.295-168.17-168.17-168.17m0 353.65c-102.44 0-185.48-83.043-185.48-185.48 0-102.44 83.041-185.48 185.48-185.48s185.48 83.042 185.48 185.48c0 102.44-83.042 185.48-185.48 185.48" fill="#474749"/><path d="M1525.1 440.6c-5.179 5.159-11.797 12.7-19.398 8.262-3.253-1.9-3.909-5.705-3.303-9.173.717-4.09 2.674-8.099 4.42-11.964a76.373 76.373 0 0 0-34.543-8.231 76.394 76.394 0 0 0-39.647 11.041c3.886 6.162 9.569 14.169 3.631 20.525-2.572 2.752-6.427 2.551-9.676 1.192-4.06-1.699-7.723-4.736-11.297-7.411-12.342 13.64-19.87 31.712-19.87 51.511 0 2.647.134 5.262.397 7.84 6.843-.928 14.909-1.666 17.878 5.552 1.433 3.483-.354 6.906-2.942 9.294-2.751 2.54-6.266 4.415-9.666 6.234 9.393 23.038 29.648 40.52 54.373 46.063 1.237-4.552 2.198-9.574 4.459-13.69 1.694-3.086 4.586-5.645 8.313-5.092 9.342 1.385 9.176 12.823 10.153 20.12.013.09.026.181.037.272 28.992-2.306 53.501-20.75 64.502-46.338-4.097-2.276-8.698-4.408-12.122-7.569-2.587-2.388-4.375-5.811-2.941-9.294 3.411-8.292 13.552-6.087 20.831-5.153.29-2.708.447-5.455.447-8.239 0-21.934-9.251-41.736-24.036-55.752m-52.824 158.51c-56.662 0-102.76-46.098-102.76-102.76 0-56.663 46.099-102.76 102.76-102.76 56.665 0 102.76 46.098 102.76 102.76 0 56.664-46.097 102.76-102.76 102.76" fill="#84a7a3"/><path d="M1472.3 400.24c-52.995 0-96.11 43.115-96.11 96.11 0 52.997 43.115 96.112 96.11 96.112 52.998 0 96.112-43.115 96.112-96.112 0-52.995-43.114-96.11-96.112-96.11m0 198.87c-56.663 0-102.76-46.099-102.76-102.76 0-56.662 46.098-102.76 102.76-102.76 56.665 0 102.76 46.098 102.76 102.76 0 56.664-46.097 102.76-102.76 102.76" fill="#a6bbb4"/><path d="M1511.1 499.14a38.78 38.78 0 0 1-8.804 21.984l4.354 4.353c6.106-7.2 9.997-16.331 10.611-26.337zm-9.417-28.277c5.081 5.861 8.452 13.244 9.309 21.37h6.169c-.894-9.818-4.944-18.731-11.126-25.724zm-26.256-13.336a38.77 38.77 0 0 1 21.292 8.531l4.365-4.366a44.888 44.888 0 0 0-25.657-10.325zm-27.953 8.775a38.78 38.78 0 0 1 21.047-8.733v-6.16c-9.64.793-18.426 4.626-25.4 10.541zm-13.966 25.931c.843-7.989 4.114-15.261 9.055-21.074l-4.353-4.354c-6.038 6.948-9.99 15.749-10.869 25.428zm8.454 28.582a38.755 38.755 0 0 1-8.561-21.675h-6.162c.607 9.868 4.395 18.889 10.356 26.042zm26.559 14.311c-8.276-.79-15.802-4.184-21.757-9.347l-4.352 4.353c7.084 6.263 16.139 10.334 26.109 11.154zm28.919-9.09c-6.039 5.132-13.656 8.454-22.013 9.132v6.16c10.048-.703 19.194-4.708 26.365-10.939zm-6.423-26.896a18.883 18.883 0 0 1-2.968 7.737l4.858 4.858c2.688-3.598 4.474-7.902 4.982-12.595zm-3.526-14.085a18.924 18.924 0 0 1 3.295 7.178h6.902a25.69 25.69 0 0 0-5.348-12.029zm-12.064-7.416a18.871 18.871 0 0 1 7.01 2.701l4.885-4.885a25.656 25.656 0 0 0-11.895-4.688zm-13.706 2.91a18.922 18.922 0 0 1 6.8-2.826v-6.871a25.622 25.622 0 0 0-11.657 4.839zm-8.004 11.684a18.862 18.862 0 0 1 3.058-6.862l-4.851-4.851a25.654 25.654 0 0 0-5.11 11.713zm2.527 14.3a18.845 18.845 0 0 1-2.761-7.393h-6.872c.494 4.556 2.192 8.746 4.748 12.279zm12.277 8.438a18.89 18.89 0 0 1-7.564-3.384l-4.851 4.85a25.681 25.681 0 0 0 12.415 5.407zm14.706-3.148a18.863 18.863 0 0 1-7.8 3.233v6.872a25.649 25.649 0 0 0 12.651-5.254zm-10.977 52.648c-37.563 0-68.123-30.56-68.123-68.124 0-37.562 30.56-68.123 68.123-68.123 37.564 0 68.124 30.561 68.124 68.123 0 37.564-30.56 68.124-68.124 68.124" fill="#242b33"/><path d="M1588.1 732.57c-34.33 15.157-70.891 22.842-108.67 22.842-148.5 0-269.32-120.82-269.32-269.32 0-12.815.928-25.785 2.758-38.55a4.05 4.05 0 0 1 5.005-3.35l40.084 10.175a4.053 4.053 0 0 1 3.023 4.422 223.17 223.17 0 0 0-1.685 27.303c0 121.38 98.751 220.13 220.13 220.13 28.215 0 55.703-5.272 81.7-15.67a4.049 4.049 0 0 1 4.836 1.461l23.828 34.548a4.052 4.052 0 0 1-1.698 6.004" fill="#f7931d"/><path d="M1213.9 467.03c0 148.5 120.81 269.32 269.31 269.32 34.618 0 68.213-6.474 100.01-19.218l6.504 9.429a4.053 4.053 0 0 1-1.698 6.005c-34.33 15.157-70.891 22.842-108.67 22.842-148.5 0-269.32-120.82-269.32-269.32 0-12.815.928-25.785 2.758-38.55.187-1.307.983-2.349 2.041-2.941a270.668 270.668 0 0 0-.945 22.432" fill="#f8ae5d"/><path d="M1326.6 1045.9V879.64s-82.292 7.045-82.292 95.107c0 0-2.8 68.338 82.292 71.156" fill="#2f3640"/><path d="M1326.6 1045.9s18.473-9.511 21.272-22.544v-122.94s-5.318-17.26-21.272-20.782z" fill="#404853"/><path d="M1326.6 1023.4V902.13s-82.292 5.139-82.292 69.37c0 0-2.8 49.843 82.292 51.898" fill="#1e242d"/><path d="M1326.6 993.24h21.272v20.484l-21.272 10.289zm0-57.75h21.272v11.624H1326.6zm0-37.44 21.272 10.288v20.484H1326.6z" fill="#545c67"/><path d="M1326.6 988.39v-51.293s-82.292 2.173-82.292 29.341c0 0-2.8 21.083 82.292 21.952M748.58 454.97c-31.221 3.651-46.503 22.743-50.009 27.745l-222.9 334.96-20.795-13.837 221.97-333.56S704.037 430 745.881 430l279.12-.969.077 24.979z" fill="#2f3640"/><path d="m1371.6 635.6-100.46 215.94-6.988-3.25 100.46-215.94a75.81 75.81 0 0 0 7.023-31.751v-60.855h7.705v60.855c0 12.009-2.677 24.113-7.743 35.001" fill="#7f2a25"/><path d="m1406.2 573.45-21.05-102.8-46.567 9.535 21.05 102.8z" fill="#95745a"/><path d="m1389.6 555.16 20.407-4.179a2.934 2.934 0 0 1 3.464 2.288l3.086 15.066a2.935 2.935 0 0 1-2.286 3.464l-20.408 4.179zm13.1-40.06a2.937 2.937 0 0 1 3.466 2.287l3.085 15.067a2.936 2.936 0 0 1-2.287 3.464l-20.409 4.18-4.262-20.819zm-9.5-46.1a2.935 2.935 0 0 1 3.465 2.287l3.084 15.066a2.933 2.933 0 0 1-2.287 3.464l-20.408 4.179-4.262-20.818z" fill="#95745a"/><path d="m1350.5 585.07-7.152-34.926a3.566 3.566 0 0 1 2.777-4.208l32.46-6.646a3.564 3.564 0 0 1 4.208 2.778l7.151 34.925a3.562 3.562 0 0 1-2.777 4.207l-32.46 6.647a3.565 3.565 0 0 1-4.207-2.777m-6.6-57.24-9.839-48.049a3.563 3.563 0 0 1 2.776-4.207l27.53-5.638a3.566 3.566 0 0 1 4.208 2.778l9.839 48.049a3.564 3.564 0 0 1-2.777 4.207l-27.53 5.638a3.563 3.563 0 0 1-4.207-2.778" fill="#c99977"/><path d="M470.52 775.16c-14.098 5.261-33.869 6.946-33.869 6.946h-20.819c-2.142 0-3.879-2.172-3.879-4.851V754.31c0-2.679 1.737-4.85 3.879-4.85h20.819s19.771 1.684 33.869 6.945c7.416 2.767 7.416 15.988 0 18.755" fill="#242b33"/><path d="M422.52 782.11h-6.691c-2.142 0-3.879-2.172-3.879-4.851v-22.944c0-2.68 1.737-4.851 3.879-4.851h6.691z" fill="#7f2a25"/><path d="m734.73 568.87-31.383 12.184 15.34 39.511 31.383-12.184z" fill="#a2aba3"/><path d="M759.56 614.28c-4.708-12.125-18.354-18.139-30.481-13.431-12.125 4.708-18.14 18.354-13.432 30.48s18.354 18.14 30.481 13.432c12.126-4.707 18.14-18.354 13.432-30.481m-23.93-50.06c-3.869-9.965-15.083-14.908-25.049-11.038-9.966 3.869-14.908 15.083-11.039 25.048 3.869 9.966 15.084 14.908 25.05 11.039 9.965-3.868 14.907-15.084 11.038-25.049" fill="#b8bfb8"/><path d="M1042.2 540.43c0-40.703-32.997-73.699-73.698-73.699-40.703 0-73.699 32.996-73.699 73.699s32.996 73.699 73.699 73.699c40.701 0 73.698-32.996 73.698-73.699" fill="#c8c49a"/><path d="M968.53 489.88c-27.918 0-50.551 22.632-50.551 50.55s22.633 50.549 50.551 50.549c27.916 0 50.548-22.631 50.548-50.549s-22.632-50.55-50.548-50.55m0 107.59c-31.503 0-57.039-25.536-57.039-57.037s25.536-57.038 57.039-57.038c31.5 0 57.036 25.537 57.036 57.038s-25.536 57.037-57.036 57.037" fill="#ae9d81"/><path d="M854.37 660.64h13.387v43.39H854.37zm-93.93 0h13.387v43.39H760.44zm72.24 0h13.386v43.39H832.68zm-38.32 0h38.312v59.314H794.36z" fill="#b1ae8a"/><path d="M794.36 719.95h54.468v23.773H794.36z" fill="#ae9d81"/><path d="M848.83 710.49h18.925v36.465H848.83z" fill="#b1ae8a"/><path d="M843.52 746.96h29.542v7.616H843.52z" fill="#c8c49a"/><path d="M775.32 743.73h57.353v7.616H775.32z" fill="#b1ae8a"/><path d="M843.52 759.65h29.542v7.616H843.52z" fill="#c8c49a"/><path d="M845.08 754.57h26.427v5.078H845.08z" fill="#ae9d81"/><path d="M799.44 731.84c0-6.246-5.063-11.309-11.31-11.309-6.245 0-11.309 5.063-11.309 11.309s5.064 11.309 11.309 11.309c6.247 0 11.31-5.063 11.31-11.309" fill="#c8c49a"/><path d="M773.82 663.64h20.541v36.004H773.82zm72.24 0h8.308v36.004h-8.308z" fill="#ae9d81"/><path d="M794.36 689.03h-17.541v4.846h17.541z" fill="#b1ae8a"/><path d="M823.21 737.49h4.847v-17.541h-4.847zm-14.02 0h4.847v-17.541h-4.847z" fill="#c8c49a"/><path d="M794.36 669.64h-17.541v4.847h17.541z" fill="#b1ae8a"/><path d="M840.84 737.49h-8.164v-33.465h8.164zm-29.91-39.46h-6.789c-.827 0-1.497-.67-1.497-1.497v-37.107c0-.826.67-1.496 1.497-1.496h6.789c.827 0 1.497.67 1.497 1.496v37.107c0 .827-.67 1.497-1.497 1.497m18.95 0h-6.788c-.826 0-1.498-.67-1.498-1.497v-37.107c0-.826.672-1.496 1.498-1.496h6.788c.827 0 1.498.67 1.498 1.496v37.107c0 .827-.671 1.497-1.498 1.497" fill="#c8c49a"/><path d="M784.93 491.83a7.27 7.27 0 1 0-14.54 0 7.27 7.27 0 0 0 14.54 0" fill="#2f363f"/><path d="M782.74 491.83a5.08 5.08 0 1 0-10.161 0 5.08 5.08 0 1 0 10.161 0" fill="#4b535f"/><g clip-path="url(#g)" opacity=".2"><path d="m781.89 489.02-8.423 5.679a5.081 5.081 0 0 1 4.187-7.958c1.77 0 3.326.907 4.236 2.279" fill="#414142"/></g><path d="M352.62 493.64c0-8.296-6.726-15.021-15.021-15.021-8.297 0-15.023 6.725-15.023 15.021 0 8.297 6.726 15.022 15.023 15.022 8.295 0 15.021-6.725 15.021-15.022" fill="#2f363f"/><path d="M348.09 493.64c0-5.798-4.701-10.498-10.498-10.498-5.799 0-10.5 4.7-10.5 10.498 0 5.799 4.701 10.499 10.5 10.499 5.797 0 10.498-4.7 10.498-10.499" fill="#4b535f"/><g clip-path="url(#h)" opacity=".2"><path d="m346.35 487.85-17.404 11.735a10.451 10.451 0 0 1-1.848-5.944c0-5.798 4.701-10.499 10.499-10.499 3.656 0 6.874 1.873 8.753 4.708" fill="#414142"/></g><path d="M836.15 491.83a7.27 7.27 0 1 0-14.54 0 7.27 7.27 0 0 0 14.54 0" fill="#2f363f"/><path d="M833.96 491.83a5.08 5.08 0 1 0-10.162 0 5.081 5.081 0 1 0 10.162 0" fill="#4b535f"/><g clip-path="url(#i)" opacity=".2"><path d="m833.11 489.02-8.422 5.679a5.081 5.081 0 0 1 4.186-7.958c1.77 0 3.326.907 4.236 2.279" fill="#414142"/></g><path d="M887.37 491.83a7.27 7.27 0 1 0-14.54 0 7.27 7.27 0 0 0 14.54 0" fill="#2f363f"/><path d="M885.18 491.83a5.081 5.081 0 1 0-10.163 0 5.081 5.081 0 0 0 10.163 0" fill="#4b535f"/><g clip-path="url(#j)" opacity=".2"><path d="m884.34 489.02-8.423 5.679a5.081 5.081 0 0 1 4.186-7.958c1.77 0 3.327.907 4.237 2.279" fill="#414142"/></g><path d="M613.05 714.65c0-3.878-1.707-5.351-4.421-5.351-2.715 0-4.421 1.473-4.421 5.351v9.772c0 3.879 1.706 5.275 4.421 5.275 2.714 0 4.421-1.396 4.421-5.275zm-4.421 22.88c-8.376 0-12.953-4.963-12.953-13.651v-9.927c0-7.988 3.181-12.41 9.463-12.41 3.8 0 6.437 1.707 7.911 4.81v-9.928c0-5.197-1.707-6.67-4.732-6.67-2.714 0-4.42 1.473-4.42 5.352v1.938h-8.066v-1.396c0-8.686 4.343-13.65 12.719-13.65 8.843 0 13.03 4.964 13.03 14.115v27.766c0 8.688-4.575 13.651-12.952 13.651m35.141-22.88c0-3.878-1.706-5.351-4.42-5.351-2.715 0-4.422 1.473-4.422 5.351v9.772c0 3.879 1.707 5.275 4.422 5.275 2.714 0 4.42-1.396 4.42-5.275zm-4.42 22.88c-8.377 0-12.954-4.963-12.954-13.651v-9.927c0-7.988 3.18-12.41 9.463-12.41 3.8 0 6.438 1.707 7.911 4.81v-9.928c0-5.197-1.706-6.67-4.731-6.67-2.715 0-4.42 1.473-4.42 5.352v1.938h-8.068v-1.396c0-8.686 4.344-13.65 12.72-13.65 8.843 0 13.03 4.964 13.03 14.115v27.766c0 8.688-4.575 13.651-12.951 13.651" fill="#242b33"/><path d="M623.9 666.08c-24.212 0-43.909 19.698-43.909 43.91s19.697 43.91 43.909 43.91 43.91-19.698 43.91-43.91-19.698-43.91-43.91-43.91m0 91.579c-26.285 0-47.669-21.385-47.669-47.669 0-26.285 21.384-47.669 47.669-47.669 26.284 0 47.669 21.384 47.669 47.669 0 26.284-21.385 47.669-47.669 47.669M1021.6 879.9c0-5-2.201-6.9-5.701-6.9-3.499 0-5.698 1.9-5.698 6.9v12.599c0 5.001 2.199 6.801 5.698 6.801 3.5 0 5.701-1.8 5.701-6.801zm-5.701 29.499c-10.799 0-16.699-6.4-16.699-17.6V879c0-10.3 4.1-16 12.2-16 4.899 0 8.3 2.2 10.2 6.2v-12.799c0-6.7-2.201-8.6-6.1-8.6-3.501 0-5.701 1.9-5.701 6.899v2.5h-10.398v-1.8c0-11.199 5.599-17.599 16.399-17.599 11.399 0 16.799 6.4 16.799 18.2v35.798c0 11.2-5.901 17.6-16.7 17.6M1061.2 879.9c0-5-2.199-6.9-5.699-6.9s-5.7 1.9-5.7 6.9v12.599c0 5.001 2.2 6.801 5.7 6.801s5.699-1.8 5.699-6.801zm-5.699 29.499c-10.8 0-16.699-6.4-16.699-17.6V879c0-10.3 4.099-16 12.199-16 4.9 0 8.299 2.2 10.199 6.2v-12.799c0-6.7-2.199-8.6-6.099-8.6-3.5 0-5.7 1.9-5.7 6.899v2.5h-10.4v-1.8c0-11.199 5.601-17.599 16.401-17.599 11.399 0 16.798 6.4 16.798 18.2v35.798c0 11.2-5.898 17.6-16.699 17.6" fill="#242b33"/><path d="M1035.6 817.29c-31.217 0-56.612 25.396-56.612 56.613s25.395 56.613 56.612 56.613c31.215 0 56.613-25.396 56.613-56.613s-25.398-56.613-56.613-56.613m0 118.07c-33.889 0-61.458-27.571-61.458-61.458 0-33.889 27.569-61.459 61.458-61.459 33.888 0 61.458 27.57 61.458 61.459 0 33.887-27.57 61.458-61.458 61.458" fill="#242b33"/><path d="m1276.9 875.23-39.141-18.478-73.853 156.44 39.14 18.479z" fill="#2f3640"/><path d="m1267.2 1079.1-27.392 32.874a8.896 8.896 0 0 1-12.527 1.139l-54.317-45.262a8.894 8.894 0 0 1-1.141-12.527l27.393-32.873a8.894 8.894 0 0 1 12.527-1.14l54.319 45.262c3.773 3.145 4.284 8.754 1.138 12.527" fill="#2f3640"/><path d="m1245.9 1110.4-73.616-61.343-8.975 10.772 73.615 61.342z" fill="#404853"/><path d="m1280.3 871.1-48.167-22.739-15.928 33.74 48.166 22.74zm59-123.66-27.537-13-58.933 123.66 27.535 13z" fill="#2f3640"/><path d="m1370 782.76-12.693 26.886a1.689 1.689 0 0 1-2.248.807l-50.975-24.064a1.693 1.693 0 0 1-.807-2.251l12.693-26.885a1.69 1.69 0 0 1 2.25-.807l50.973 24.064a1.688 1.688 0 0 1 .807 2.25m122.6-284.74-103.22 218.63-34.813-16.435 103.22-218.64c3.418-7.241 12.061-10.339 19.302-6.921l8.589 4.055c7.242 3.419 10.341 12.06 6.922 19.302" fill="#adc8c5"/><path d="m1365.5 778.8-43.716-20.639 28.347-60.041 43.715 20.638zm-18.6 27.84-34.813-16.436-121.56 256.3 34.813 16.435z" fill="#111720"/><path d="m1346.9 806.64-17.407-8.217-121.56 256.3 17.406 8.218zm18.6-27.84-20.671-9.759 28.347-60.042 20.67 9.759z" fill="#1c232b"/><path d="m1257.8 872.23-31.417-14.831-77.908 165.03 31.416 14.83z" fill="#404853"/><g clip-path="url(#k)" opacity=".15"><path d="m1242.1 864.81-15.709-7.416-77.908 165.03 15.708 7.415z" fill="#414142"/></g><path d="M1485.7 497.3c0-7.789-6.314-14.103-14.103-14.103-7.79 0-14.104 6.314-14.104 14.103s6.314 14.104 14.104 14.104c7.789 0 14.103-6.315 14.103-14.104" fill="#84a7a3"/><path d="M1481.7 497.3c0-5.609-4.548-10.156-10.156-10.156-5.61 0-10.157 4.547-10.157 10.156 0 5.61 4.547 10.156 10.157 10.156 5.608 0 10.156-4.546 10.156-10.156" fill="#6e8d8a"/><path d="M1160.4 1064.3s16.717 7.774 31.494 5.456c0 0 15.89-2.63 19.61-18.65 0 0 3.896-19.354-9.07-31.953l-.489-19.034a5.787 5.787 0 0 0-1.451-3.697 177.962 177.962 0 0 0-9.983-10.348l-44.563-39.441c-3.82-3.382-4.627-6.992-4.696-12.096-.029-2.123.011-4.274.193-5.93.171-1.556-1.657-4.382-2.719-5.534-1.046-1.135-2.633-1.777-4.784.198 0 0-8.344 13.683-.293 24.514l43.813 38.774s12.817 15.595 8.176 24.978z" fill="#282e37"/><path d="M1196.6 1033.5c.081-18.416-14.784-33.407-33.197-33.488-18.416-.08-33.408 14.784-33.489 33.198-.079 18.414 14.783 33.407 33.199 33.487 18.414.081 33.406-14.782 33.487-33.197" fill="#6d7684"/><path d="M1163.4 1011.1c-12.279-.054-22.275 9.857-22.329 22.135-.054 12.28 9.856 22.277 22.135 22.33 12.279.054 22.276-9.858 22.331-22.136.052-12.279-9.859-22.276-22.137-22.329m-.22 50.612c-15.675-.068-28.325-12.829-28.257-28.503.069-15.674 12.83-28.325 28.503-28.257 15.675.068 28.326 12.83 28.257 28.504-.067 15.673-12.829 28.325-28.503 28.256" fill="#404853"/><path d="m1077.9 987.4 77.047 57.376s12.683 4.342 18.446-6.588c0 0 4.741-8.811 1.339-15.872l-68.789-64.467z" fill="#282e37"/><path d="M1113 973.38c.049-11.268-9.045-20.441-20.313-20.491-11.268-.049-20.443 9.046-20.491 20.314-.051 11.268 9.045 20.442 20.313 20.491s20.442-9.046 20.491-20.314" fill="#6d7684"/><path d="M1092.7 962.74c-5.826-.025-10.57 4.677-10.594 10.503-.026 5.826 4.676 10.568 10.503 10.594 5.824.026 10.567-4.677 10.592-10.502.027-5.826-4.674-10.569-10.501-10.595m-.113 25.853c-8.452-.037-15.275-6.918-15.238-15.371.038-8.452 6.919-15.274 15.372-15.237 8.453.036 15.274 6.918 15.239 15.37-.037 8.453-6.921 15.275-15.373 15.238" fill="#404853"/><path d="M1092.6 978.51a5.222 5.222 0 1 1 .047-10.443 5.222 5.222 0 0 1-.047 10.443" fill="#404853"/><path d="m1235.1 1101.4-7.686-6.406-8.978 10.773 7.689 6.404zm-11.3-9.4-5.765-4.805-8.975 10.772 5.765 4.805z" fill="#545c67"/><g clip-path="url(#l)" opacity=".15"><path d="m1481.9 476.91-109.41 231.74-8.051-3.801-9.821-4.636 78.956-167.24 24.262-51.391c3.418-7.24 12.061-10.339 19.302-6.921z" fill="#414142"/></g><path d="M1231.5 874.35c14 7.489 33.633 9.886 33.633 9.886h20.677c2.128 0 3.851-3.091 3.851-6.904v-32.664c0-3.813-1.723-6.904-3.851-6.904h-20.677s-19.633 2.398-33.633 9.886c-7.366 3.94-7.366 22.761 0 26.7" fill="#242b33"/><path d="M1279.2 884.23h6.644c2.128 0 3.852-3.091 3.852-6.904v-32.664c0-3.813-1.724-6.905-3.852-6.905h-6.644zm-512.64-99.1H459.68s-104.63-10.491-167.58 95.734h182.01s7.868-72.784 116.06-72.784h176.39z" fill="#f7931d"/><path d="M590.91 859.97c-52.457 0-65.134 32.959-65.134 32.959-1.749 11.54-13.989 12.066-13.989 12.066l-31.474-6.556c-11.366-3.06-6.198-17.576-6.198-17.576s7.868-72.784 116.06-72.784h176.39v51.891z" fill="#c88761"/><path d="M509.47 889.37s14.729-38.292 75.674-38.292h181.42v8.893h-175.65c-52.458 0-65.134 32.959-65.134 32.959-1.749 11.54-13.99 12.065-13.99 12.065l-13.221-2.754c4.262-1.502 9.709-4.956 10.908-12.871" fill="#ddb584"/><path d="M605.35 825.34c-108.19 0-116.06 72.785-116.06 72.785s-.283.802-.571 2.061l-8.399-1.75c-11.366-3.06-6.199-17.575-6.199-17.575s7.869-72.785 116.06-72.785h176.39v17.264z" fill="#b0704f"/><path d="m734.01 439.76 3.33 16.906 50.493-18.997zm79.463-.131-47.677 20.157 4.338 8.318-30.062 28.015-69.21 15.724-2.006-9.154 4.392-9.324 23.847-6.42 11.75-49.666 1.532-6.889 97.819-3.801s15.003 3.809 5.277 13.04" fill="#404853"/><path d="M741.16 482.13a7.138 7.138 0 1 0-12.657 6.6 7.138 7.138 0 0 0 12.657-6.6" fill="#84a7a3"/><path d="M739.39 483.06a5.141 5.141 0 0 0-9.115 4.753 5.14 5.14 0 0 0 9.115-4.753" fill="#6e8d8a"/><path d="M726.41 438.41a7.137 7.137 0 0 0-9.628-3.029 7.137 7.137 0 1 0 6.599 12.657 7.137 7.137 0 0 0 3.029-9.628" fill="#84a7a3"/><path d="M724.64 439.33a5.14 5.14 0 1 0-9.115 4.752 5.14 5.14 0 0 0 9.115-4.752" fill="#6e8d8a"/><path d="M693.73 483.96c-5.41-10.376-18.207-14.402-28.583-8.992-10.375 5.41-14.401 18.207-8.992 28.583 5.41 10.376 18.207 14.402 28.583 8.992s14.403-18.208 8.992-28.583" fill="#555e6b"/><path d="M688.07 486.91c-3.781-7.252-12.725-10.065-19.976-6.285-7.252 3.782-10.066 12.725-6.284 19.977 3.781 7.252 12.724 10.065 19.976 6.284s10.065-12.725 6.284-19.976" fill="#84a7a3"/><g clip-path="url(#m)" opacity=".2"><path d="m682.11 480.81-14.115 26.025a14.738 14.738 0 0 1-6.186-6.228c-3.782-7.252-.969-16.196 6.284-19.977 4.573-2.384 9.817-2.141 14.017.18" fill="#414142"/></g><path d="m832.98 590.98 44.544-89.675h-125.53s-8.998 29.958 0 51.874z" fill="#b1ae8a"/><path d="m832.98 590.98-22.272 25.285-54.668-39.595-4.05-23.491z" fill="#c8c49a"/><path d="M813.17 459.24h-19.572a3.583 3.583 0 0 0-3.583 3.582v20.507a3.582 3.582 0 0 0 3.583 3.582h19.572a3.581 3.581 0 0 0 3.582-3.582v-20.507a3.582 3.582 0 0 0-3.582-3.582m52.12 0h-19.572a3.582 3.582 0 0 0-3.582 3.582v20.507a3.581 3.581 0 0 0 3.582 3.582h19.572a3.582 3.582 0 0 0 3.583-3.582v-20.507a3.583 3.583 0 0 0-3.583-3.582" fill="#b1ae8a"/><path d="m727.81 666.77 32.627-6.132v43.39l-32.627-5.199z" fill="#b8bfb8"/><path d="M770.89 513.94a8.563 8.563 0 0 0-8.563-8.563 8.563 8.563 0 1 0 0 17.126 8.563 8.563 0 0 0 8.563-8.563" fill="#c8c49a"/><path d="M768.31 513.94a5.985 5.985 0 1 0-11.97 0 5.985 5.985 0 0 0 11.97 0" fill="#dbd6b9"/><g clip-path="url(#n)" opacity=".4"><path d="m767.32 510.64-9.921 6.69a5.986 5.986 0 0 1 4.931-9.374 5.979 5.979 0 0 1 4.99 2.684" fill="#dbd6b9"/></g><path d="M862.94 513.94a8.563 8.563 0 0 0-8.564-8.563 8.563 8.563 0 0 0 0 17.126 8.563 8.563 0 0 0 8.564-8.563" fill="#c8c49a"/><path d="M860.36 513.94a5.986 5.986 0 1 0-11.971.001 5.986 5.986 0 0 0 11.971-.001" fill="#dbd6b9"/><g clip-path="url(#o)" opacity=".4"><path d="m859.36 510.64-9.921 6.69a5.986 5.986 0 0 1 4.931-9.374 5.977 5.977 0 0 1 4.99 2.684" fill="#dbd6b9"/></g><path d="M945.71 623.35a8.667 8.667 0 0 0-8.667-8.667 8.667 8.667 0 1 0 0 17.334 8.668 8.668 0 0 0 8.667-8.667" fill="#c8c49a"/><path d="M943.1 623.35a6.057 6.057 0 1 0-12.115-.001 6.057 6.057 0 0 0 12.115.001" fill="#dbd6b9"/><g clip-path="url(#p)" opacity=".4"><path d="m942.09 620.01-10.042 6.771a6.058 6.058 0 1 1 10.042-6.771" fill="#dbd6b9"/></g><path d="M868.53 632.02c0-8.771-7.11-15.883-15.884-15.883-8.771 0-15.882 7.112-15.882 15.883 0 8.772 7.111 15.884 15.882 15.884 8.774 0 15.884-7.112 15.884-15.884" fill="#c8c49a"/><path d="M863.74 632.02c0-6.13-4.97-11.1-11.102-11.1-6.129 0-11.1 4.97-11.1 11.1 0 6.131 4.971 11.101 11.1 11.101 6.132 0 11.102-4.97 11.102-11.101" fill="#dbd6b9"/><g clip-path="url(#q)" opacity=".4"><path d="m861.9 625.9-18.401 12.408a11.041 11.041 0 0 1-1.955-6.285c0-6.13 4.97-11.1 11.101-11.1 3.867 0 7.268 1.979 9.255 4.977" fill="#dbd6b9"/></g><path d="M1074.5 715.67c0-8.772-7.11-15.883-15.884-15.883-8.771 0-15.884 7.111-15.884 15.883s7.113 15.884 15.884 15.884c8.774 0 15.884-7.112 15.884-15.884" fill="#c8c49a"/><path d="M1069.7 715.67c0-6.13-4.97-11.101-11.102-11.101-6.129 0-11.1 4.971-11.1 11.101 0 6.131 4.971 11.101 11.1 11.101 6.132 0 11.102-4.97 11.102-11.101" fill="#dbd6b9"/><g clip-path="url(#r)" opacity=".4"><path d="m1067.9 709.54-18.402 12.408a11.057 11.057 0 0 1-1.953-6.285c0-6.131 4.97-11.101 11.1-11.101 3.867 0 7.269 1.98 9.255 4.978" fill="#dbd6b9"/></g><path d="M981.46 743.52c0-8.772-7.112-15.882-15.884-15.882-8.771 0-15.884 7.11-15.884 15.882s7.113 15.884 15.884 15.884c8.772 0 15.884-7.112 15.884-15.884" fill="#c8c49a"/><path d="M976.68 743.52c0-6.13-4.97-11.1-11.101-11.1-6.13 0-11.101 4.97-11.101 11.1 0 6.131 4.971 11.102 11.101 11.102 6.131 0 11.101-4.971 11.101-11.102" fill="#dbd6b9"/><g clip-path="url(#s)" opacity=".4"><path d="m974.83 737.4-18.403 12.407a11.039 11.039 0 0 1-1.955-6.285c0-6.13 4.97-11.1 11.101-11.1a11.09 11.09 0 0 1 9.257 4.978" fill="#dbd6b9"/></g><path d="M886.2 557.08c0-4.787-3.88-8.667-8.667-8.667s-8.667 3.88-8.667 8.667 3.88 8.667 8.667 8.667 8.667-3.88 8.667-8.667" fill="#c8c49a"/><path d="M883.59 557.08a6.058 6.058 0 1 0-12.115 0 6.058 6.058 0 0 0 12.115 0" fill="#dbd6b9"/><g clip-path="url(#t)" opacity=".4"><path d="m882.58 553.74-10.042 6.771a6.057 6.057 0 1 1 10.042-6.771" fill="#dbd6b9"/></g><path d="M836.15 574.35a7.273 7.273 0 0 0-7.274-7.274 7.273 7.273 0 0 0-7.273 7.274 7.273 7.273 0 0 0 7.273 7.273 7.273 7.273 0 0 0 7.274-7.273" fill="#c8c49a"/><path d="M833.96 574.35a5.082 5.082 0 0 0-5.084-5.083 5.083 5.083 0 1 0 0 10.166 5.082 5.082 0 0 0 5.084-5.083" fill="#dbd6b9"/><g clip-path="url(#u)" opacity=".4"><path d="m833.12 571.55-8.427 5.682a5.083 5.083 0 1 1 8.427-5.682" fill="#dbd6b9"/></g><path d="M856.3 544.05h-107c-1.14-5.708-1.429-11.589-1.248-17.098h116.74z" fill="#c8c49a"/><path d="m764.42 449.71-.963 28.895a38.423 38.423 0 0 0 2.114 13.95l8.439 24.295a22.399 22.399 0 0 1 .904 11.182l-17.55 100.23a20.67 20.67 0 0 0 6.404 18.871l49.395 45.384 7.764-8.45-49.395-45.385a9.245 9.245 0 0 1-2.864-8.44l17.548-100.23a33.89 33.89 0 0 0-1.365-16.927l-8.44-24.293a27.056 27.056 0 0 1-1.486-9.803l.963-28.896z" fill="#222931"/><path d="m822.49 684.81-8.19 8.996a1.911 1.911 0 0 1-2.697.126l-44.748-40.78a1.907 1.907 0 0 1-.126-2.696l8.19-8.996a1.908 1.908 0 0 1 2.696-.126l44.749 40.78a1.91 1.91 0 0 1 .126 2.696" fill="#a7a9ac"/><path d="M776.79 479.04h-14.993a1.351 1.351 0 0 1-1.351-1.351v-7.05c0-.746.605-1.351 1.351-1.351h14.993a1.35 1.35 0 0 1 1.351 1.351v7.05a1.35 1.35 0 0 1-1.351 1.351m0-21.27h-14.993a1.351 1.351 0 0 1-1.351-1.351v-7.05c0-.746.605-1.351 1.351-1.351h14.993a1.35 1.35 0 0 1 1.351 1.351v7.05a1.35 1.35 0 0 1-1.351 1.351" fill="#2f3640"/><path d="M1010.7 539.21c0-7.269-18.886-13.16-42.184-13.16-23.296 0-42.184 5.891-42.184 13.16 0 7.268 18.888 13.16 42.184 13.16 23.298 0 42.184-5.892 42.184-13.16" fill="#ae9d81"/><path d="m862.07 796.32 37.753-.323-61.528 111.45a374.114 374.114 0 0 1-22.989-12.941s-2.267-1.182-5.607-3.322z" fill="#242b33"/><g clip-path="url(#v)" opacity=".15"><path d="M766.56 851.72v-52.251s6.3-14.419 18.898-14.419l323.57-2.772 67.576 12.2s10.309 2.772 16.608 19.963l10.488 37.279z" fill="#414142"/></g><path d="M315.72 848.15h172.91c-6.751 8.915-10.419 17.53-12.374 23.68h-178.5c5.733-8.74 11.756-16.598 17.966-23.68m179.198-7.37h-172.4c9.085-9.359 18.482-17.17 27.906-23.679h181.93c-16.866 6.148-28.885 14.763-37.438 23.679" fill="#ffd991"/><g clip-path="url(#w)" opacity=".15"><path d="M372.36 804.12c46.201-23.106 87.334-18.987 87.334-18.987h306.88v18.987z" fill="#414142"/></g><g clip-path="url(#x)" opacity=".15"><path d="M569.03 710c0-30.256 24.614-54.871 54.87-54.871s54.871 24.615 54.871 54.871c0 1.015-.033 2.021-.087 3.022h-109.57a55.024 55.024 0 0 1-.087-3.022" fill="#414142"/></g><path d="m875.3 467.75 52.952-10.326-6.039-16.139zm-23.148 1.254 85.261-48.098 4.919 5.061 36.067 36.11 23.667-7.049 8.632 5.632 3.097 8.846-67.165 22.935-40.291-8.072-.674-9.357-51.161 7.863c-13.125-2.754-2.352-13.871-2.352-13.871" fill="#404853"/><path d="M938.36 481.1a7.136 7.136 0 0 1 6.605-7.631 7.136 7.136 0 0 1 7.631 6.606 7.135 7.135 0 0 1-6.605 7.63 7.134 7.134 0 0 1-7.631-6.605" fill="#84a7a3"/><path d="M940.35 480.96a5.139 5.139 0 1 1 10.252-.738 5.139 5.139 0 0 1-4.758 5.495 5.138 5.138 0 0 1-5.494-4.757" fill="#6e8d8a"/><path d="M927.97 436.14a7.139 7.139 0 0 1 6.607-7.631 7.138 7.138 0 1 1-6.607 7.631" fill="#84a7a3"/><path d="M929.96 435.99a5.139 5.139 0 1 1 10.251-.738 5.14 5.14 0 1 1-10.251.738" fill="#6e8d8a"/><path d="M979.7 457.76c-.84-11.671 7.941-21.814 19.611-22.654 11.672-.841 21.815 7.94 22.655 19.612.84 11.67-7.941 21.814-19.612 22.654-11.671.839-21.815-7.941-22.654-19.612" fill="#555e6b"/><path d="M986.06 457.31c-.587-8.157 5.549-15.245 13.706-15.833 8.158-.587 15.246 5.55 15.833 13.708.588 8.156-5.55 15.245-13.707 15.832-8.156.587-15.244-5.549-15.832-13.707" fill="#84a7a3"/><g clip-path="url(#y)" opacity=".2"><path d="m987.93 448.98 25.671 14.746a14.711 14.711 0 0 0 1.998-8.548c-.586-8.158-7.676-14.295-15.832-13.707-5.146.37-9.481 3.329-11.837 7.509" fill="#414142"/></g></g></svg>